<svg width="20" height="20" viewBox="0 0 20 20" fill="none" xmlns="http://www.w3.org/2000/svg">
<path d="M5.69298 4.87836C5.70482 4.84008 5.71712 4.80203 5.72995 4.76422C6.33348 2.98159 8.0368 1.73198 9.9979 1.73198C11.9607 1.73198 13.6652 2.98372 14.2674 4.76868C14.2808 4.80821 14.2935 4.848 14.3057 4.88805C14.3207 4.93682 14.3348 4.98597 14.348 5.03549L14.396 5.23635L14.4242 5.33933C14.4482 5.40619 14.4813 5.46796 14.5218 5.52355C14.6295 5.67123 14.7894 5.77518 14.9691 5.81448C15.0697 5.83645 15.1767 5.83818 15.284 5.81605C15.3137 5.8099 15.3434 5.80435 15.3732 5.79933C15.4939 5.779 15.6167 5.76745 15.741 5.76505C15.7575 5.76475 15.7741 5.7646 15.7906 5.7646C15.8092 5.7646 15.8277 5.76482 15.8463 5.76528C17.179 5.7976 18.2503 6.98845 18.2503 8.3125C18.2503 9.6256 17.1966 10.7021 15.8792 10.7484C15.8498 10.7495 15.8203 10.75 15.7906 10.75H12.9942C12.608 10.75 12.2901 11.0463 12.2489 11.418C12.2459 11.445 12.2444 11.4723 12.2444 11.5C12.2444 11.5276 12.2459 11.5549 12.2489 11.5817C12.29 11.9537 12.608 12.25 12.9942 12.25H15.7906C15.8586 12.25 15.9262 12.2483 15.9934 12.2449C18.0859 12.1392 19.75 10.4062 19.75 8.3125C19.75 8.16168 19.7414 8.01235 19.7246 7.8649C19.6879 7.543 19.6122 7.2304 19.5024 6.93273C18.9419 5.41338 17.4915 4.2826 15.7906 4.2826L15.6856 4.28654C15.6833 4.27973 15.681 4.27292 15.6786 4.26612C14.8653 1.9026 12.6026 0.25 9.9979 0.25C7.39345 0.25 5.13073 1.90235 4.31793 4.26327C4.31589 4.26921 4.31384 4.27516 4.31181 4.28112L4.21077 4.27987C2.51522 4.27987 1.06853 5.40396 0.50359 6.91623C0.38977 7.22088 0.311748 7.54128 0.274683 7.87143C0.258378 8.01678 0.25 8.16393 0.25 8.3125C0.25 10.3887 1.88581 12.1089 3.95327 12.2418C3.98507 12.2438 4.01696 12.2455 4.04895 12.2468C4.10262 12.2489 4.15657 12.25 4.21077 12.25H6.99985C7.52102 12.25 7.7497 11.8752 7.7497 11.5C7.7497 11.0908 7.41392 10.75 6.99985 10.75H4.04895C2.76516 10.6677 1.74968 9.60198 1.74968 8.3125C1.74968 6.9754 2.84162 5.77278 4.19238 5.7619C4.19851 5.7619 4.20464 5.76183 4.21077 5.76183C4.23838 5.76183 4.26593 5.76228 4.29342 5.76318C4.37733 5.76595 4.46085 5.77285 4.54479 5.7841C4.60064 5.7916 4.65667 5.80105 4.71314 5.81238L4.81514 5.8264L4.91474 5.8267C4.9398 5.82513 4.96463 5.82228 4.98849 5.818L5.04979 5.80563L5.091 5.79348L5.18968 5.75575C5.30177 5.70273 5.39987 5.62263 5.47371 5.52205C5.5342 5.43973 5.57837 5.34369 5.60065 5.23761L5.60283 5.21857L5.6482 5.03391C5.66223 4.98165 5.67715 4.9298 5.69298 4.87836ZM6.22195 13.75C6.13195 13.7337 6.03955 13.7337 5.94963 13.75C5.83967 13.77 5.7334 13.8143 5.63965 13.8831L5.55557 13.9548L5.47579 14.0476C5.28696 14.3079 5.28935 14.6618 5.48296 14.9196L5.55557 15.0027L9.4798 18.8806L9.5737 18.9594C9.83702 19.146 10.1952 19.1437 10.4562 18.9524L10.5402 18.8806L14.4645 15.0027L14.5371 14.9196C14.7549 14.6295 14.7306 14.2179 14.4645 13.9548C14.3528 13.8445 14.2147 13.7762 14.0703 13.75C13.9804 13.7337 13.888 13.7337 13.7981 13.75C13.6881 13.77 13.5819 13.8143 13.4881 13.8831L13.404 13.9548L10.7481 16.5824L10.7495 6.991L10.7427 6.89043C10.6931 6.52878 10.3794 6.25 9.9997 6.25C9.58563 6.25 9.25 6.58165 9.24985 6.99078L9.25113 16.5595L6.616 13.9548L6.5221 13.8759C6.43075 13.8113 6.328 13.7693 6.22195 13.75Z" fill="#0078A8"/>
</svg>
