<svg width="28" height="30" viewBox="0 0 28 30" fill="none" xmlns="http://www.w3.org/2000/svg">
<path d="M11.8243 0.79783C13.0811 -0.26204 14.9189 -0.26204 16.1757 0.797845L26.3008 9.336C27.0611 9.97728 27.5 10.9213 27.5 11.9161V26.6202C27.5 28.0699 26.3248 29.2452 24.875 29.2452H19.625C18.1752 29.2452 17 28.0699 17 26.6202V18.3702C17 18.1632 16.8321 17.9952 16.625 17.9952H11.375C11.1678 17.9952 11 18.1632 11 18.3702V26.6202C11 28.0699 9.82475 29.2452 8.375 29.2452H3.125C1.67525 29.2452 0.5 28.0699 0.5 26.6202V11.9161C0.5 10.9213 0.938825 9.97728 1.69928 9.336L11.8243 0.79783ZM14.7252 2.5179C14.3063 2.1646 13.6937 2.1646 13.2748 2.5179L3.14977 11.0561C2.89628 11.2698 2.75 11.5845 2.75 11.9161V26.6202C2.75 26.8273 2.9179 26.9952 3.125 26.9952H8.375C8.5821 26.9952 8.74999 26.8273 8.74999 26.6202V18.3702C8.74999 16.9204 9.92525 15.7452 11.375 15.7452H16.625C18.0748 15.7452 19.25 16.9204 19.25 18.3702V26.6202C19.25 26.8273 19.4179 26.9952 19.625 26.9952H24.875C25.0821 26.9952 25.25 26.8273 25.25 26.6202V11.9161C25.25 11.5845 25.1038 11.2698 24.8503 11.0561L14.7252 2.5179Z" fill="#FFFAFC"/>
</svg>
