<svg width="18" height="18" viewBox="0 0 18 18" fill="none" xmlns="http://www.w3.org/2000/svg">
<path d="M13.5 6C14.3285 6 15 5.32845 15 4.5C15 3.67157 14.3285 3 13.5 3C12.6715 3 12 3.67157 12 4.5C12 5.32845 12.6715 6 13.5 6ZM8.25 15V14.25H9.75C10.1642 14.25 10.5 13.9142 10.5 13.5V12H12C15.3137 12 18 9.31373 18 6C18 2.68629 15.3137 0 12 0C8.68627 0 6 2.68629 6 6C6 6.58815 6.08483 7.15755 6.2433 7.69605L0.439343 13.5C0.158033 13.7813 0 14.1628 0 14.5606V16.5C0 17.3284 0.671572 18 1.5 18H4.5C5.32845 18 6 17.3284 6 16.5V15.75H7.5C7.91423 15.75 8.25 15.4142 8.25 15ZM7.5 6C7.5 3.51472 9.51472 1.5 12 1.5C14.4853 1.5 16.5 3.51472 16.5 6C16.5 8.48528 14.4853 10.5 12 10.5H9.75C9.33578 10.5 9 10.8358 9 11.25V12.75H7.5C7.08577 12.75 6.75 13.0858 6.75 13.5V14.25H5.25C4.83577 14.25 4.5 14.5858 4.5 15V16.5H1.5V14.5606L7.6335 8.42723C7.84358 8.21708 7.9098 7.90282 7.80247 7.62577C7.60733 7.12252 7.5 6.57473 7.5 6Z" fill="#0078A8"/>
</svg>
