<svg width="48" height="40" viewBox="0 0 48 40" fill="none" xmlns="http://www.w3.org/2000/svg">
<path d="M10.5837 0.166748C8.32849 0.166748 6.50033 1.99492 6.50033 4.25008V10.0834C6.50033 12.3386 8.32849 14.1667 10.5837 14.1667H16.417C18.6722 14.1667 20.5003 12.3386 20.5003 10.0834V4.25008C20.5003 1.99492 18.6722 0.166748 16.417 0.166748H10.5837ZM27.5003 4.25008C27.5003 1.99492 29.3285 0.166748 31.5837 0.166748H37.417C39.6722 0.166748 41.5003 1.99492 41.5003 4.25008V10.0834C41.5003 12.3386 39.6722 14.1667 37.417 14.1667H31.5837C29.3285 14.1667 27.5003 12.3386 27.5003 10.0834V4.25008ZM31.5837 3.66675C31.2614 3.66675 31.0003 3.92792 31.0003 4.25008V10.0834C31.0003 10.4056 31.2614 10.6667 31.5837 10.6667H37.417C37.7392 10.6667 38.0003 10.4056 38.0003 10.0834V4.25008C38.0003 3.92792 37.7392 3.66675 37.417 3.66675H31.5837ZM12.3337 32.8334C14.2667 32.8334 15.8337 31.2664 15.8337 29.3334C15.8337 27.4005 14.2667 25.8334 12.3337 25.8334C10.4007 25.8334 8.83366 27.4005 8.83366 29.3334C8.83366 31.2664 10.4007 32.8334 12.3337 32.8334ZM27.5003 29.3334C27.5003 31.2664 25.9333 32.8334 24.0003 32.8334C22.0674 32.8334 20.5003 31.2664 20.5003 29.3334C20.5003 27.4005 22.0674 25.8334 24.0003 25.8334C25.9333 25.8334 27.5003 27.4005 27.5003 29.3334ZM35.667 32.8334C37.5999 32.8334 39.167 31.2664 39.167 29.3334C39.167 27.4005 37.5999 25.8334 35.667 25.8334C33.7341 25.8334 32.167 27.4005 32.167 29.3334C32.167 31.2664 33.7341 32.8334 35.667 32.8334ZM0.666992 29.3334C0.666992 23.5344 5.36801 18.8334 11.167 18.8334H36.8337C42.6327 18.8334 47.3337 23.5344 47.3337 29.3334C47.3337 35.1325 42.6327 39.8334 36.8337 39.8334H11.167C5.36801 39.8334 0.666992 35.1325 0.666992 29.3334ZM11.167 22.3334C7.30101 22.3334 4.16699 25.4673 4.16699 29.3334C4.16699 33.1995 7.30101 36.3334 11.167 36.3334H36.8337C40.6998 36.3334 43.8337 33.1995 43.8337 29.3334C43.8337 25.4673 40.6998 22.3334 36.8337 22.3334H11.167Z" fill="#FA4B86"/>
</svg>
