<svg width="47" height="48" viewBox="0 0 47 48" fill="none" xmlns="http://www.w3.org/2000/svg">
<path d="M23.4212 0.665527C26.9674 0.665527 29.842 3.54033 29.842 7.08656V40.9164C29.842 44.4626 26.9674 47.3375 23.4212 47.3375C19.875 47.3375 17.0001 44.4626 17.0001 40.9164V7.08656C17.0001 3.54033 19.875 0.665527 23.4212 0.665527ZM39.7545 12.3322C43.3007 12.3322 46.1754 15.207 46.1754 18.7532V40.9164C46.1754 44.4626 43.3007 47.3375 39.7545 47.3375C36.2083 47.3375 33.3334 44.4626 33.3334 40.9164V18.7532C33.3334 15.207 36.2083 12.3322 39.7545 12.3322ZM7.08778 23.9988C10.634 23.9988 13.5088 26.8737 13.5088 30.4199V40.9164C13.5088 44.4626 10.634 47.3375 7.08778 47.3375C3.54153 47.3375 0.666748 44.4626 0.666748 40.9164V30.4199C0.666748 26.8737 3.54153 23.9988 7.08778 23.9988ZM23.4212 4.16553C21.8079 4.16553 20.5001 5.47331 20.5001 7.08656V40.9164C20.5001 42.5297 21.8079 43.8375 23.4212 43.8375C25.0344 43.8375 26.342 42.5297 26.342 40.9164V7.08656C26.342 5.47331 25.0344 4.16553 23.4212 4.16553ZM39.7545 15.8322C38.1412 15.8322 36.8334 17.14 36.8334 18.7532V40.9164C36.8334 42.5297 38.1412 43.8375 39.7545 43.8375C41.3678 43.8375 42.6754 42.5297 42.6754 40.9164V18.7532C42.6754 17.14 41.3678 15.8322 39.7545 15.8322ZM7.08778 27.4988C5.47453 27.4988 4.16675 28.8067 4.16675 30.4199V40.9164C4.16675 42.5297 5.47453 43.8375 7.08778 43.8375C8.70102 43.8375 10.0088 42.5297 10.0088 40.9164V30.4199C10.0088 28.8067 8.70102 27.4988 7.08778 27.4988Z" fill="#FA4B86"/>
</svg>
