<svg width="21" height="20" viewBox="0 0 21 20" fill="none" xmlns="http://www.w3.org/2000/svg">
<path d="M18.75 -0.000488281C19.7165 -0.000488281 20.5 0.783012 20.5 1.74951V4.79222C20.5 5.81638 19.9309 6.75569 19.0231 7.2298L12.7413 10.5101C14.3773 11.3319 15.5 13.0253 15.5 14.9809C15.5 17.7423 13.2614 19.9809 10.5 19.9809C7.73858 19.9809 5.5 17.7423 5.5 14.9809C5.5 13.0253 6.62271 11.3319 8.25875 10.5101L1.97693 7.2298C1.06913 6.75569 0.5 5.81638 0.5 4.79222V1.74951C0.5 0.783012 1.2835 -0.000488281 2.25 -0.000488281H18.75ZM10.5 11.4809C8.567 11.4809 7 13.0479 7 14.9809C7 16.9139 8.567 18.4809 10.5 18.4809C12.433 18.4809 14 16.9139 14 14.9809C14 13.0479 12.433 11.4809 10.5 11.4809ZM14 1.49851H7V8.1605L10.3843 9.9284C10.4568 9.9663 10.5432 9.9663 10.6157 9.9284L14 8.1595V1.49851ZM5.5 1.49851L2.25 1.49951C2.11193 1.49951 2 1.61144 2 1.74951V4.79222C2 5.25775 2.25869 5.68471 2.67133 5.90021L5.5 7.37651V1.49851ZM18.75 1.49951L15.5 1.49851V7.37651L18.3287 5.90021C18.7413 5.68471 19 5.25775 19 4.79222V1.74951C19 1.61144 18.8881 1.49951 18.75 1.49951Z" fill="white"/>
</svg>
