<svg width="51" height="37" viewBox="0 0 51 37" fill="none" xmlns="http://www.w3.org/2000/svg">
<path d="M12.0499 13.1562L12.5283 12.986L16.5728 5.40258C18.1206 2.50035 21.1421 0.6875 24.4312 0.6875H34.6147C38.4483 0.6875 41.8515 3.14053 43.0638 6.77735L44.9915 12.5602C48.2394 13.928 50.4375 17.1313 50.4375 20.7676V24.7344C50.4375 27.2627 48.9323 29.4397 46.7692 30.418C46.1864 33.7664 43.2655 36.3125 39.75 36.3125C36.4301 36.3125 33.6403 34.0418 32.8494 30.9688H18.1505C17.3596 34.0418 14.57 36.3125 11.25 36.3125C7.73456 36.3125 4.81374 33.7664 4.23084 30.418C2.06766 29.4397 0.5625 27.2627 0.5625 24.7344V23.5276C0.5625 19.7597 2.93356 16.3996 6.48348 15.1366L11.8623 13.223V13.1562H12.0499ZM34.6147 4.25H30.8438V13.1562H41.4351L39.6841 7.90391C38.9566 5.72181 36.9146 4.25 34.6147 4.25ZM27.2812 4.25H24.4312C22.4577 4.25 20.6449 5.3377 19.7162 7.07905L16.475 13.1562H27.2812V4.25ZM12.6647 16.7188L7.6776 18.493C5.54765 19.2508 4.125 21.2669 4.125 23.5276V24.7344C4.125 25.358 4.33864 25.9317 4.69675 26.3863C5.78491 23.8439 8.30944 22.0625 11.25 22.0625C14.57 22.0625 17.3596 24.3332 18.1505 27.4062H32.8494C33.6403 24.3332 36.4301 22.0625 39.75 22.0625C42.6905 22.0625 45.2152 23.8439 46.3032 26.3863C46.6613 25.9317 46.875 25.358 46.875 24.7344V20.7676C46.875 19.1681 46.1657 17.7075 45.0193 16.7188H12.6647ZM43.3125 29.1875C43.3125 27.2199 41.7176 25.625 39.75 25.625C37.7824 25.625 36.1875 27.2199 36.1875 29.1875C36.1875 31.1551 37.7824 32.75 39.75 32.75C41.7176 32.75 43.3125 31.1551 43.3125 29.1875ZM11.25 25.625C9.2825 25.625 7.6875 27.2199 7.6875 29.1875C7.6875 31.1551 9.2825 32.75 11.25 32.75C13.2175 32.75 14.8125 31.1551 14.8125 29.1875C14.8125 27.2199 13.2175 25.625 11.25 25.625Z" fill="#FA4B86"/>
</svg>
