<svg width="24" height="28" viewBox="0 0 24 28" fill="none" xmlns="http://www.w3.org/2000/svg">
<path d="M19 6.99998C19 10.866 15.866 14 12 14C8.134 14 5 10.866 5 6.99998C5 3.134 8.134 0 12 0C15.866 0 19 3.134 19 6.99998ZM17 6.99998C17 4.23857 14.7614 2 12 2C9.2386 2 7 4.23857 7 6.99998C7 9.7614 9.2386 12 12 12C14.7614 12 17 9.7614 17 6.99998ZM3.5 16C1.56696 16 -5.99983e-05 17.567 1.72296e-09 19.5001L1.00153e-05 20C3.00153e-05 22.3935 1.52264 24.4174 3.68492 25.7934C5.85906 27.177 8.8015 28 11.9999 28C15.1983 28 18.1408 27.177 20.315 25.7934C22.4773 24.4174 24 22.3935 24 20V19.5C24 17.567 22.433 16 20.5 16H3.5ZM2 19.5C1.99998 18.6716 2.67156 18 3.5 18H20.5C21.3284 18 22 18.6715 22 19.5V20C22 21.4725 21.0602 22.9486 19.2413 24.1061C17.4342 25.256 14.8767 26 11.9999 26C9.1232 26 6.5657 25.256 4.75867 24.1061C2.93978 22.9486 2.00001 21.4725 2.00001 20L2 19.5Z" fill="#FA4B86"/>
</svg>
