<svg width="48" height="45" viewBox="0 0 48 45" fill="none" xmlns="http://www.w3.org/2000/svg">
<path d="M5.5533 5.47332C6.32633 2.26277 9.19892 0 12.5017 0H35.5032C38.806 0 41.6786 2.26277 42.4516 5.47332L47.0996 24.7779C48.3543 29.9882 44.4051 35 39.0452 35H20.5031V31.5H39.0452C42.1404 31.5 44.4207 28.6057 43.6965 25.5971L39.0482 6.29251C38.6539 4.65449 37.1883 3.5 35.5032 3.5H12.5017C10.8166 3.5 9.35101 4.65449 8.9566 6.29251L7.38172 12.8333H4.75063C4.41477 12.8333 4.08493 12.8591 3.763 12.9088L5.5533 5.47332ZM20.4768 40.8333H36.2543C37.221 40.8333 38.0045 40.0498 38.0045 39.0833C38.0045 38.1169 37.221 37.3333 36.2543 37.3333H20.5031V40.25C20.5031 40.4467 20.4943 40.6413 20.4768 40.8333ZM9.41832 26.8333C11.0294 26.8333 12.3354 25.5276 12.3354 23.9167C12.3354 22.3057 11.0294 21 9.41832 21C7.80725 21 6.50121 22.3057 6.50121 23.9167C6.50121 25.5276 7.80725 26.8333 9.41832 26.8333ZM0.666992 19.25C0.666992 16.9948 2.49544 15.1667 4.75096 15.1667H14.0857C16.3412 15.1667 18.1697 16.9948 18.1697 19.25V40.25C18.1697 42.5052 16.3412 44.3333 14.0857 44.3333H4.75093C2.49544 44.3333 0.666992 42.5052 0.666992 40.25V19.25ZM4.75096 18.6667C4.42872 18.6667 4.16753 18.9278 4.16753 19.25V40.25C4.16753 40.5722 4.42872 40.8333 4.75093 40.8333H14.0857C14.4079 40.8333 14.6691 40.5722 14.6691 40.25V19.25C14.6691 18.9278 14.4079 18.6667 14.0857 18.6667H4.75096Z" fill="#FA4B86"/>
</svg>
