<svg width="41" height="51" viewBox="0 0 41 51" fill="none" xmlns="http://www.w3.org/2000/svg">
<path d="M10.7031 18.375C9.22748 18.375 8.03125 19.5713 8.03125 21.0469V37.0781C8.03125 38.5537 9.22748 39.75 10.7031 39.75C12.1787 39.75 13.375 38.5537 13.375 37.0781V21.0469C13.375 19.5713 12.1787 18.375 10.7031 18.375ZM17.8281 24.6094C17.8281 23.1338 19.0244 21.9375 20.5 21.9375C21.9756 21.9375 23.1719 23.1338 23.1719 24.6094V37.0781C23.1719 38.5537 21.9756 39.75 20.5 39.75C19.0244 39.75 17.8281 38.5537 17.8281 37.0781V24.6094ZM30.2969 29.0625C28.8213 29.0625 27.625 30.2588 27.625 31.7344V37.0781C27.625 38.5537 28.8213 39.75 30.2969 39.75C31.7725 39.75 32.9688 38.5537 32.9688 37.0781V31.7344C32.9688 30.2588 31.7725 29.0625 30.2969 29.0625ZM25.8438 0.5625C28.1704 0.5625 30.1499 2.04951 30.8834 4.125H33.8594C37.3025 4.125 40.0938 6.91622 40.0938 10.3594V44.2031C40.0938 47.6463 37.3025 50.4375 33.8594 50.4375H7.14062C3.69747 50.4375 0.90625 47.6463 0.90625 44.2031V10.3594C0.90625 6.91622 3.69747 4.125 7.14062 4.125H10.1166C10.8501 2.04951 12.8296 0.5625 15.1562 0.5625H25.8438ZM15.1562 4.125C14.1725 4.125 13.375 4.9225 13.375 5.90625C13.375 6.89 14.1725 7.6875 15.1562 7.6875H25.8438C26.8275 7.6875 27.625 6.89 27.625 5.90625C27.625 4.9225 26.8275 4.125 25.8438 4.125H15.1562ZM7.14062 7.6875C5.66498 7.6875 4.46875 8.88373 4.46875 10.3594V44.2031C4.46875 45.6787 5.66498 46.875 7.14062 46.875H33.8594C35.335 46.875 36.5312 45.6787 36.5312 44.2031V10.3594C36.5312 8.88373 35.335 7.6875 33.8594 7.6875H30.8834C30.1499 9.76299 28.1704 11.25 25.8438 11.25H15.1562C12.8296 11.25 10.8501 9.76299 10.1166 7.6875H7.14062Z" fill="#FA4B86"/>
</svg>
