<svg width="56" height="56" viewBox="0 0 56 56" fill="none" xmlns="http://www.w3.org/2000/svg">
<path d="M4.66675 34.4167C4.66675 38.6048 8.06191 42 12.2501 42H13.9982L14.0001 48.4164C14.0001 49.0457 14.2039 49.6585 14.5811 50.1629C15.5459 51.4528 17.3737 51.7165 18.6637 50.7516L23.6225 47.0419L24.5465 43.3459C24.7134 42.6792 24.9586 42.0378 25.2752 41.4349L17.4998 47.2514L17.4973 38.5H12.2501C9.99492 38.5 8.16675 36.6718 8.16675 34.4167V14.5833C8.16675 12.3282 9.99492 10.5 12.2501 10.5H43.7501C46.0052 10.5 47.8334 12.3282 47.8334 14.5833V23.5541C49.1109 23.8672 50.3233 24.5126 51.3334 25.4907V14.5833C51.3334 10.3952 47.9382 7 43.7501 7H12.2501C8.06191 7 4.66675 10.3952 4.66675 14.5833V34.4167Z" fill="#FA4B86"/>
<path d="M42.2284 27.2287L28.4561 41.001C27.653 41.8039 27.0834 42.81 26.8081 43.9118L25.7401 48.1835C25.2758 50.041 26.9584 51.7238 28.8159 51.2593L33.0876 50.1913C34.1894 49.916 35.1955 49.3464 35.9984 48.5433L49.7707 34.771C51.8536 32.6883 51.8536 29.3115 49.7707 27.2287C47.6879 25.1458 44.3111 25.1458 42.2284 27.2287Z" fill="#FA4B86"/>
</svg>
