<svg width="20" height="20" viewBox="0 0 20 20" fill="none" xmlns="http://www.w3.org/2000/svg">
<path d="M3.69362 10.0002L0.299331 1.27199C0.0631011 0.664522 0.655441 0.0835824 1.2414 0.290072L1.33375 0.329332L19.3337 9.3293C19.852 9.5885 19.8844 10.298 19.4309 10.6134L19.3337 10.671L1.33375 19.671C0.750771 19.9625 0.117461 19.4265 0.268801 18.8239L0.299331 18.7283L3.69362 10.0002L0.299331 1.27199L3.69362 10.0002ZM2.4021 2.54056L5.01109 9.2496L11.6387 9.2502C12.0184 9.2502 12.3322 9.5323 12.3818 9.8984L12.3887 10.0002C12.3887 10.3798 12.1065 10.6936 11.7404 10.7433L11.6387 10.7502L5.01109 10.7496L2.4021 17.4597L17.3213 10.0002L2.4021 2.54056Z" fill="white"/>
</svg>
