<svg width="17" height="20" viewBox="0 0 17 20" fill="none" xmlns="http://www.w3.org/2000/svg">
<path d="M3.5 5V3C3.5 1.34315 4.84315 0 6.5 0C7.2684 0 7.9692 0.28886 8.5 0.7639C9.0308 0.28885 9.7317 0 10.5 0C12.1569 0 13.5 1.34315 13.5 3V5H15C15.8284 5 16.5 5.67157 16.5 6.5V16.505C16.5 18.4352 14.9352 20 13.005 20H4.5C2.29086 20 0.5 18.2091 0.5 16V6.5C0.5 5.67157 1.17157 5 2 5H3.5ZM10.135 18.5C9.741 17.9343 9.51 17.2466 9.51 16.505V6.5H2V16C2 17.3807 3.11929 18.5 4.5 18.5H10.135ZM8 5V3C8 2.17157 7.3284 1.5 6.5 1.5C5.67157 1.5 5 2.17157 5 3V5H8ZM9.5 5H12V3C12 2.17157 11.3284 1.5 10.5 1.5C10.035 1.5 9.6195 1.71156 9.3444 2.04368C9.4453 2.34403 9.5 2.66563 9.5 3V5ZM11.01 16.505C11.01 17.6068 11.9032 18.5 13.005 18.5C14.1068 18.5 15 17.6068 15 16.505V6.5H11.01V16.505Z" fill="white"/>
</svg>
