<svg width="56" height="56" viewBox="0 0 56 56" fill="none" xmlns="http://www.w3.org/2000/svg">
<path d="M34.7466 5.57529C33.9655 4.79425 32.6991 4.79425 31.9181 5.57529L5.57503 31.9183C4.79399 32.6994 4.79399 33.9658 5.57503 34.7469L8.42362 37.5954C9.48287 37.0031 10.7041 36.6661 11.9986 36.6661C16.0487 36.6661 19.3319 39.9493 19.3319 43.9994C19.3319 45.2941 18.9948 46.5151 18.4026 47.5743L21.2515 50.4234C22.0326 51.2045 23.2989 51.2045 24.0799 50.4234L50.4231 24.0802C51.2042 23.2991 51.2042 22.0328 50.4231 21.2518L47.5743 18.403C46.5149 18.9955 45.2933 19.3328 43.9986 19.3328C39.9485 19.3328 36.6653 16.0496 36.6653 11.9995C36.6653 10.7047 37.0026 9.48313 37.5951 8.42369L34.7466 5.57529ZM29.0898 2.74686C31.433 0.403715 35.2319 0.403715 37.5751 2.74686L40.6989 5.87081C42.061 7.23281 41.817 9.14476 41.1301 10.2998C40.8351 10.796 40.6653 11.3748 40.6653 11.9995C40.6653 13.8404 42.1575 15.3328 43.9986 15.3328C44.6231 15.3328 45.2021 15.1629 45.6981 14.8679C46.8533 14.1811 48.7653 13.937 50.1271 15.2991L53.2514 18.4233C55.5946 20.7665 55.5946 24.5655 53.2514 26.9087L26.9085 53.2517C24.5653 55.5949 20.7662 55.5949 18.4231 53.2517L15.2987 50.1274C13.9368 48.7655 14.1806 46.8538 14.8672 45.6989C15.162 45.2026 15.3319 44.6239 15.3319 43.9994C15.3319 42.1586 13.8395 40.6661 11.9986 40.6661C11.3741 40.6661 10.7953 40.8359 10.2993 41.1309C9.14423 41.8175 7.23255 42.0613 5.87071 40.6994L2.74661 37.5754C0.403461 35.2322 0.403488 31.4333 2.74661 29.0901L29.0898 2.74686Z" fill="#FA4B86"/>
</svg>
