<svg width="20" height="15" viewBox="0 0 20 15" fill="none" xmlns="http://www.w3.org/2000/svg">
<path d="M15.7454 6.7506C16.3362 7.3414 16.8476 8.058 17.2373 8.8199C17.4259 9.1886 17.2799 9.6405 16.9111 9.8291C16.5423 10.0177 16.0905 9.8717 15.9019 9.5029C15.5815 8.8766 15.1613 8.2878 14.6847 7.8112C12.1221 5.24857 7.96723 5.24857 5.40457 7.8112C4.90675 8.309 4.50234 8.8688 4.19098 9.4844C4.00402 9.854 3.55283 10.0021 3.18321 9.8151C2.81359 9.6281 2.66551 9.1769 2.85247 8.8073C3.23527 8.0505 3.73331 7.3612 4.34391 6.7506C7.49235 3.60212 12.5969 3.60212 15.7454 6.7506ZM13.6435 9.8194C14.0911 10.267 14.4594 10.8167 14.7156 11.4016C14.8819 11.781 14.7091 12.2233 14.3297 12.3895C13.9503 12.5558 13.508 12.383 13.3418 12.0036C13.1587 11.5858 12.895 11.1922 12.5829 10.8801C11.1801 9.4773 8.90584 9.4773 7.50314 10.8801C7.19263 11.1906 6.94052 11.5688 6.75594 11.9906C6.5899 12.3701 6.14767 12.5431 5.76819 12.3771C5.38871 12.211 5.21569 11.7688 5.38174 11.3893C5.63919 10.8009 5.99557 10.2663 6.44248 9.8194C8.43104 7.8309 11.655 7.8309 13.6435 9.8194ZM18.4485 4.27868C18.9576 4.78773 19.4382 5.3693 19.8567 5.97556C20.0919 6.3165 20.0063 6.7836 19.6654 7.0188C19.3245 7.2541 18.8574 7.1685 18.6221 6.8276C18.2541 6.2944 17.8313 5.78273 17.3879 5.33934C13.3078 1.25928 6.69279 1.25928 2.61274 5.33934C2.19086 5.76121 1.77245 6.2728 1.39071 6.8231C1.15461 7.1634 0.687314 7.2479 0.346974 7.0118C0.00664401 6.7757 -0.077856 6.3084 0.158254 5.9681C0.588414 5.34803 1.06282 4.76794 1.55208 4.27868C6.21792 -0.387163 13.7827 -0.387163 18.4485 4.27868ZM11.0611 12.4391C11.6469 13.0249 11.6469 13.9748 11.0611 14.5607C10.4752 15.1465 9.52544 15.1465 8.93954 14.5607C8.35364 13.9748 8.35364 13.0249 8.93954 12.4391C9.52544 11.8532 10.4752 11.8532 11.0611 12.4391Z" fill="#0078A8"/>
</svg>
